<?xml version="1.0" standalone="no"?>
<!DOCTYPE svg PUBLIC "-//W3C//DTD SVG 20010904//EN"
 "http://www.w3.org/TR/2001/REC-SVG-20010904/DTD/svg10.dtd">
<svg version="1.0" xmlns="http://www.w3.org/2000/svg"
 width="512.000000pt" height="512.000000pt" viewBox="0 0 512.000000 512.000000"
 preserveAspectRatio="xMidYMid meet">
<metadata>
Created by potrace 1.11, written by Peter Selinger 2001-2013
</metadata>
<g transform="translate(0.000000,512.000000) scale(0.100000,-0.100000)"
fill="#000000" stroke="none">
<path d="M2430 5054 c-638 -43 -1200 -293 -1635 -729 -390 -389 -636 -890
-711 -1445 -23 -168 -23 -472 0 -640 75 -555 321 -1056 711 -1445 389 -390
890 -636 1445 -711 165 -22 493 -23 645 -1 566 80 1047 318 1440 712 200 199
357 417 474 659 113 232 185 455 225 696 102 618 -36 1264 -381 1787 -394 598
-1045 1006 -1753 1097 -121 15 -367 26 -460 20z m1136 -1384 c57 -80 101 -146
99 -148 -3 -3 -173 -32 -191 -32 -15 0 -218 289 -209 298 9 9 133 30 170 28
26 -1 41 -17 131 -146z m-471 -71 c59 -83 105 -152 103 -154 -3 -3 -203 -34
-204 -31 0 0 -44 64 -98 141 -54 77 -100 145 -103 151 -3 9 107 35 184 43 6 0
59 -67 118 -150z m-467 -76 c87 -125 100 -148 85 -154 -25 -9 -183 -32 -187
-28 -22 25 -195 279 -198 289 -2 10 16 17 67 26 135 22 117 32 233 -133z
m-473 -68 c55 -79 101 -148 103 -153 1 -5 -35 -14 -80 -21 -46 -7 -90 -14 -99
-17 -12 -3 -45 36 -124 147 -59 83 -105 152 -103 154 4 3 166 32 188 33 8 1
59 -62 115 -143z m-466 -81 c57 -80 101 -148 98 -150 -2 -3 -46 -12 -97 -21
-78 -13 -94 -13 -105 -2 -25 25 -203 284 -199 288 6 6 134 29 170 30 29 1 38
-9 133 -145z m-36 -296 c3 -7 39 -84 81 -170 l75 -158 -105 0 -104 0 -80 167
c-44 91 -80 168 -80 170 0 1 47 3 104 3 74 0 105 -4 109 -12z m547 -154 c44
-92 80 -168 80 -170 0 -2 -46 -4 -103 -4 l-104 0 -81 170 -81 170 105 0 105 0
79 -166z m477 -4 l81 -170 -105 0 -104 0 -80 165 c-43 91 -79 168 -79 170 0 3
46 5 103 5 l102 0 82 -170z m472 4 c44 -91 81 -168 81 -170 0 -2 -46 -4 -103
-4 l-103 0 -38 78 c-22 42 -58 119 -82 170 l-43 92 103 0 103 0 82 -166z m471
6 c44 -88 80 -164 80 -170 0 -6 -39 -10 -100 -10 l-100 0 -74 148 c-106 211
-107 192 13 192 l101 0 80 -160z m-140 -945 l0 -445 -875 0 -875 0 0 445 0
445 875 0 875 0 0 -445z"/>
</g>
</svg>
